<svg width="234" height="140" viewBox="0 0 234 140" fill="none" xmlns="http://www.w3.org/2000/svg">
<g clip-path="url(#clip0_191_245)">
<path d="M42.0726 116.474L44.9936 119.723L55.8101 122.733L56.3746 120.7L46.1529 117.856L43.8116 115.251L41.5687 111.075L39.7085 112.074L42.0726 116.474Z" fill="black"/>
<path d="M221.615 110.881L213.576 99.4233L211.848 100.635L220.156 112.476L218.482 129.436L220.585 129.644L222.221 113.025L225.945 110.454L224.748 108.716L221.615 110.881Z" fill="black"/>
<path d="M171.23 60.1455H169.12V63.9623H171.23V60.1455Z" fill="black"/>
<path d="M4.3266 51.8378L8.6191 55.0451V84.1182H10.7331V53.9886L5.592 50.149L4.3266 51.8378Z" fill="black"/>
<path d="M23.2962 32.0569L22.5991 30.0652L12.2903 33.67L5.38363 27.7629L4.00836 29.3647L10.9567 35.3095L10.5816 39.0241L12.6805 39.2362L13.048 35.6427L23.2962 32.0569Z" fill="black"/>
<path d="M17.27 49.329L13.5664 51.0851L14.4709 52.9906L18.1745 51.2346L17.27 49.329Z" fill="black"/>
<path d="M209.332 92.3456L207.468 93.3351L209.505 97.1673L211.369 96.1778L209.332 92.3456Z" fill="black"/>
<path d="M164.808 31.6697L163.553 33.3654L165.106 34.5138L166.361 32.8181L164.808 31.6697Z" fill="black"/>
<path d="M221.244 80.2559L220.91 15.6877L205.638 0H158.974L155.89 2.65816L142.827 13.9193L136.799 35.9495L129.249 11.2498L116.375 0H56.78L37.6058 28.1L35.2417 54.3635L27.8804 42.398L26.7325 30.3643L30.8848 19.4969L23.9668 1.41617L0 9.02334V127.239L31.1689 139.799L31.6615 139.996L31.8433 139.799H62.963L85.9599 133.052L90.0175 117.057L98.7881 130.443L113.768 138.235L116.773 139.799H178.72L192.496 122.593L192.643 100.802L185.536 83.6183L185.369 83.2132L184.847 81.9522L199.084 90.3584L216.19 139.299L232.735 136.024L233.992 108.984L234.004 108.734L221.248 80.2521L221.244 80.2559ZM190.188 2.10911H199.493L203.57 6.47121V12.0904L202.536 17.1796L186.585 7.37241L190.192 2.10911H190.188ZM201.588 19.0804L194.242 26.627L187.518 25.1162L183.278 19.4023L185.76 9.34898L201.585 19.0804H201.588ZM159.762 2.10911H187.631L184.532 6.63024L161.168 6.36519H161.016L158.391 7.0922L156.947 4.5325L159.758 2.10911H159.762ZM151.605 40.7735L151.469 36.8582L153.265 31.1595L158.254 26.4036L162.638 25.5289L166.843 26.7974L170.01 30.6067L172.071 37.5815L171.435 43.8293L169.87 43.3863L151.605 40.7735ZM164.684 49.1986L161.6 51.7583L159.898 51.5576L156.481 47.4492L157.716 46.4231L164.403 47.8165L164.684 49.1986ZM155.318 5.94109L156.296 7.67533L151.886 8.89839L155.318 5.94109ZM143.698 18.732L152.439 10.9355L156.818 9.72007V20.1444L155.614 25.0177C151.92 27.7895 149.332 32.8104 149.105 38.6228C149.048 40.0352 149.135 41.4135 149.351 42.735L148.18 45.768L139.455 50.3951L134.685 52.243L134.67 51.7318L143.702 18.732H143.698ZM54.9198 6.475L60.6444 7.53523L63.4934 12.3669L59.5116 23.7341H54.0257L47.8654 28.4029L46.2211 27.1495L44.4973 21.7461L54.916 6.475H54.9198ZM58.7728 25.847L57.6703 28.9974L52.2374 31.735L49.6119 29.732L54.7379 25.847H58.7728ZM39.6592 28.8383L42.9894 23.9613L44.4139 28.4294L46.1226 29.732L39.1023 35.0559L39.663 28.8421L39.6592 28.8383ZM31.0894 137.497L2.11405 125.819V103.573L6.56188 95.7353L15.306 103.941L29.0208 105.406L38.659 129.189L31.097 137.497H31.0894ZM113.321 135.634L100.251 128.833L87.9792 110.105L85.6454 94.0086L89.434 87.367H94.3138L97.2878 90.0706V111.135L104.839 112.737L112.772 116.486L117.125 124.664L116.886 131.84L113.321 135.627V135.634ZM177.705 137.698H159.122L153.14 119.644L162.039 105.41L154.655 96.1897L155.617 78.8321L159.868 73.0387L169.309 71.933L176.527 73.7316L180.876 84.3832L182.229 87.1777L179.554 95.8716L185.752 114.482L182.566 120.087L185.229 128.288L177.697 137.694L177.705 137.698ZM189.366 101.915L190.499 105.474L190.389 121.859L186.817 126.323L184.869 120.325L188.059 114.713L181.778 95.8526L183.585 89.9759L189.366 101.922V101.915ZM230.704 134.286L217.58 136.884L201.115 89.779L206.264 81.2858L210.958 78.6276L209.916 76.7912L204.741 79.722L199.592 88.2228L188.915 81.9182L182.122 73.4704L179.63 63.951V60.5393L182.316 59.0474L181.289 57.2034L177.519 59.3011V68.3093L172.943 65.6701L171.886 67.499L174.284 68.8811L175.492 71.2022L175.542 71.3196L169.45 69.8012L158.709 71.0583L153.545 78.1013L152.503 96.8902L159.459 105.573L150.829 119.378L156.902 137.709H117.292L115.272 136.66L118.978 132.726L119.262 124.187L114.314 114.891L105.634 110.791L105.524 110.738L99.4057 109.439V89.1505L95.1359 85.2692H88.2141L85.1605 90.6234L78.1023 41.9057L76.011 42.2086L76.7952 47.6348L72.9384 45.3893L72.4762 41.2771L70.3773 41.5119L70.957 46.6768L74.8138 48.9222L75.9314 86.7801L77.0112 95.19L63.8344 88.8968L62.1787 80.3732L72.8172 69.2522L64.4027 58.3886L53.3967 55.6319L40.3639 84.7013L52.0631 105.535L68.805 117.909L79.3336 113.275L79.8488 117.292L86.1872 123.574L84.2057 131.389L62.6561 137.713H33.7603L41.1065 129.648L30.4946 103.46L16.2266 101.934L6.04284 92.3766L2.11026 99.3098V10.5683L22.709 4.03267L28.6268 19.5007L24.5881 30.0765L25.755 42.326L22.618 45.2454L24.0577 46.7904L26.6302 44.3935L31.3281 52.0309L29.7558 88.3856L31.9267 91.9184L36.0562 101.248L37.6172 106.773L39.6479 106.201L34.3779 87.545L38.8447 37.892L47.8654 31.0535L52.0063 34.2114L59.379 30.4968L61.0081 25.8432H80.5308V23.7341H61.7468L65.8082 12.1397L61.9742 5.63817L56.2193 4.57036L57.8976 2.11289H115.583L127.404 12.4464L134.102 34.3629L132.408 34.1319L127.57 40.1525L126.388 47.5893L129.741 58.309L129.802 59.3617L129.609 59.161L124.672 58.3923L124.433 56.3362L124.407 56.0977L109.203 31.8789L89.8546 26.7671L89.3166 28.8081L107.858 33.7078L122.365 56.8171L122.554 58.4529L107.775 61.1489L102.774 76.2989L108.923 88.3932L119.16 87.5563L121.732 76.2346L124.725 77.1282L126.528 92.6303L128.627 92.388L127.161 79.775L131.313 84.8527L132.42 103.566L130.98 112.218L129.749 120.594L131.711 122.177L132.617 124.767L134.609 124.07L133.526 120.976L135.602 114.002L138.678 116.52L140.433 119.965L142.316 119.007L136.303 107.197L135.807 90.3508L135.864 90.419L135.716 87.2496L134.753 54.4884L140.281 52.3452L149.87 47.2675L150.264 46.2451C152.2 51.5728 156.356 55.3328 161.3 55.5259C161.433 55.5297 161.565 55.5335 161.698 55.5335C168.601 55.5335 174.428 48.5019 174.776 39.63C175.133 30.5877 169.662 23.0071 162.585 22.7269C161.043 22.6663 159.55 22.9578 158.152 23.5447L158.932 20.3981V9.12936L161.293 8.47429L183.74 8.72799L180.993 19.8567L186.294 26.9981L194.936 28.9368L203.437 20.205L204.297 20.7351L206.915 29.6941L208.942 29.1034L206.097 19.3644L204.453 18.3534L205.684 12.2987V5.64195L202.384 2.10911H204.748L210.492 8.00476L218.834 22.0226L218.91 36.6311L215.883 77.6962L219.406 81.3047L231.871 109.136L230.704 134.275V134.286ZM61.9666 90.3357L77.3332 97.6778L79.057 111.086L69.0778 115.478L53.6847 104.1L42.728 84.5877L54.6015 58.1046L63.1827 60.2553L70.0363 69.1045L59.9018 79.6992L61.9666 90.3357ZM131.101 81.2631L126.71 75.89L124.93 60.5696L128.586 61.1376L129.999 62.603L131.101 81.2593V81.2631ZM124.464 74.8487L120.175 73.5688L117.447 85.5835L110.169 86.178L105.058 76.1285L109.389 63.0044L122.8 60.5582L124.464 74.8525V74.8487Z" fill="black"/>
<path d="M158.325 31.0127L157.07 32.7084L158.623 33.8568L159.878 32.1611L158.325 31.0127Z" fill="black"/>
<path d="M163.285 36.8431C161.251 37.1688 159.281 36.3509 157.44 34.4235L155.913 35.8813C158.216 38.2934 160.486 39.0166 162.384 39.0166C165.218 39.0166 167.222 37.3997 167.256 37.3695L165.911 35.7412C165.911 35.7412 164.846 36.5932 163.289 36.8431H163.285Z" fill="black"/>
</g>
<defs>
<clipPath id="clip0_191_245">
<rect width="234" height="140" fill="white"/>
</clipPath>
</defs>
</svg>
